<svg width="342" height="72" viewBox="0 0 342 72" fill="none" xmlns="http://www.w3.org/2000/svg">
<g id="spritze">
<g id="spritzkoerper">
<mask id="mask0_48_2" style="mask-type:alpha" maskUnits="userSpaceOnUse" x="102" y="12" width="200" height="48">
<path id="maske" d="M118 15.5H298.5V56.5H118C111.096 56.5 105.5 50.9036 105.5 44V28C105.5 21.0964 111.096 15.5 118 15.5Z" fill="black" stroke="black" stroke-width="7"/>
</mask>
<g mask="url(#mask0_48_2)">
<rect id="impfe" x="105" y="12" width="45" height="48" fill="#F4AEAE"/>
<path id="outline" d="M118 15.5H298.5V56.5H118C111.096 56.5 105.5 50.9036 105.5 44V28C105.5 21.0964 111.096 15.5 118 15.5Z" stroke="black" stroke-width="7"/>
</g>
</g>
<g id="gehaeuse">
<rect id="nadel" x="2" y="34" width="68" height="4" rx="2" stroke="black" stroke-width="4"/>
<path id="vorstueck" d="M80 27.5H104.5V44.5H80C75.3056 44.5 71.5 40.6944 71.5 36C71.5 31.3056 75.3056 27.5 80 27.5Z" fill="#B2C1C0" stroke="black" stroke-width="7"/>
<rect id="hals" x="299" y="28" width="19" height="16" fill="black"/>
<rect id="druecker" x="321" y="3" width="18" height="66" rx="9" fill="#B2C1C0" stroke="black" stroke-width="6"/>
<rect id="halter" x="297" y="6" width="4" height="60" rx="2" stroke="black" stroke-width="4"/>
</g>
<g id="skala">
<rect id="01" x="126" y="44" width="4" height="16" rx="2" fill="black"/>
<rect id="02" x="145" y="44" width="4" height="16" rx="2" fill="black"/>
<rect id="03" x="164" y="44" width="4" height="16" rx="2" fill="black"/>
<rect id="04" x="183" y="44" width="4" height="16" rx="2" fill="black"/>
<rect id="05" x="202" y="44" width="4" height="16" rx="2" fill="black"/>
<rect id="06" x="221" y="44" width="4" height="16" rx="2" fill="black"/>
<rect id="07" x="240" y="44" width="4" height="16" rx="2" fill="black"/>
<rect id="08" x="259" y="44" width="4" height="16" rx="2" fill="black"/>
<rect id="09" x="278" y="44" width="4" height="16" rx="2" fill="black"/>
</g>
</g>
</svg>
